<?xml version="1.0" encoding="UTF-8"?><svg id="Layer_1" xmlns="http://www.w3.org/2000/svg" viewBox="0 0 512 512"><defs><style>.cls-1{fill-rule:evenodd;}.cls-1,.cls-2{fill:#494c5c;}.cls-1,.cls-2,.cls-3{stroke-width:0px;}.cls-3{fill:#fff;}</style></defs><path class="cls-2" d="m286.48,454.32c.07-.54.22-1.27.58-2.06,1.22-2.67,3.86-3.85,4.46-4.14,5.66-2.76,32.32-24.46,41.58-35.17,8.82-10.21,11.56-20.7,14.25-38.95,3.56-24.14,4.06-48.82-5.35-71.9-18-44.15-54.59-69.74-105.33-59.21-33.74,7-55.34,29.03-66.3,60.73-9.97,28.83-11.41,58.63-1.48,88.01,8.79,26.01,24.81,46.04,50.75,57.07,1.45.62,3.37,2.46,3.38,3.75.22,18.79.15,37.59.15,57.56H33.99c18.7-42.84,37.39-85.69,56.44-129.33.24,21.54,6.08,35.54,11.4,44.37,6.48,10.75,10.82,11.56,11.56,19.09,1.02,10.29-6.34,16.06-16.9,42.19-.86,2.13-1.66,4.28-2.73,7.05,2.3.24,3.89.56,5.48.56,21.63.04,43.27.41,64.88-.1,12.88-.31,25.49-2.74,34.94-12.85,1.99-2.13,3.71-4.69,4.9-7.34,2.59-5.79,1.16-8.71-4.94-10.07-24.67-5.49-45.39-17.35-60.48-37.91-10.39-14.15-16.97-30.03-19.34-47.53-3.63-26.81-3.28-53.3,7.1-78.81,10.53-25.91,29.26-43.7,54.82-54.63,17.36-7.42,35.48-11.03,54.23-13.05,26.25-2.84,51.97-.24,77.3,5.82,39.19,9.38,66.15,32.77,77.26,72.28,9.23,32.83,8.15,65.67-4.92,97.17-13.5,32.56-39.59,50.42-73.57,57.5-.84.17-1.68.32-2.51.53-.18.04-.31.28-.46.44-1.47,10.1,4.14,19.49,15.73,24.21,5.82,2.37,12.33,4.09,18.57,4.22,24.78.51,44.27.4,71.31.19,1.79-.01,3.23-.02,4.02-.02-.94-2-2.4-5.11-4.11-8.94-9.54-21.35-14.29-32.21-13.27-41.54.89-8.12,4.49-8.85,10.28-20.76,4.56-9.36,9.07-22.7,9.74-40.94,18.62,42.74,37.24,85.48,55.87,128.22h-191.04"/><path class="cls-2" d="m352.28,221.98c-16.22-4.83-32.24-9.81-48.41-14.27-3.87-1.07-6.16-2.46-7.71-6.32-11.6-29.08-23.43-58.06-35.25-87.05-1.17-2.87-2.7-5.58-4.88-10.02-3.77,8.83-6.98,16.11-10,23.47-10.28,25.08-20.42,50.22-30.88,75.22-.83,1.99-3.55,4.12-5.69,4.49-16.47,2.85-32.52,6.93-49.3,15.68C192.17,149.51,224.19,75.85,256.2,2.2c32.03,73.26,64.05,146.52,96.08,219.78Z"/><polygon class="cls-2" points="317.18 343.25 317.18 403.39 268.83 418.24 324.21 412.24 324.21 338.49 317.18 343.25"/><polygon class="cls-2" points="311.27 399.02 311.27 330.75 304.24 335.26 304.24 396.97 276.97 409.74 311.27 399.02"/><polygon class="cls-2" points="260.32 411.9 298.32 393.36 298.32 323.68 291.95 328.38 291.97 388.78 260.32 411.9"/><polygon class="cls-2" points="195.28 403.39 195.28 343.25 188.25 338.49 188.25 412.24 243.63 418.24 195.28 403.39"/><polygon class="cls-2" points="208.22 396.97 208.22 335.26 201.19 330.75 201.19 399.02 235.49 409.74 208.22 396.97"/><polygon class="cls-2" points="220.49 388.78 220.51 328.38 214.13 323.68 214.13 393.36 252.14 411.9 220.49 388.78"/><polygon class="cls-2" points="188.25 419.7 254.24 422.6 188.25 415 188.25 419.7"/><polygon class="cls-2" points="324.21 419.7 324.21 415 258.21 422.6 324.21 419.7"/><path class="cls-2" d="m286.29,319.77h-26.38c-.86,0-.98.22-.98-.69v-4.91c-1.55.06-3.1.12-4.65.18-.18,0-.07,3.9-.07,4.31,0,1,.23,1.1-.69,1.1h-27.65s0,4.15,0,4.56c0,.35,5.32.16,5.84.16h21.9c.92,0,.61.43.61,1.31v86.43c0,.45,4.72.17,4.72.07v-86.28c0-.6-.32-1.53.38-1.53h27.97v-3.93c0-.99-.05-.79-.98-.79Zm-24.36-6.23c-.01-1.24.06-1.12-1.16-1.24-.46-.04-.91-.09-1.37-.13-.25-.02.05-.33.21-.36.82-.13,1.63-.27,2.45-.4-.07-.39.03-.68-.4-.65-.24.01-.88.13-.99-.21-.07-.24.31-.44.46-.54.81-.52.79-.42.8-1.36,0-.46,0-.93,0-1.39-2.85.02-5.69.04-8.54.07-.69,0-1.39.02-2.09.03-.8.01-.76-.02-.78.79-.01.59,1.82.73,2.36.86-.8.32-1.6.64-2.4.95-.03,1.41-.07,2.82-.1,4.22,3.52-.13,7.03-.27,10.55-.4.34-.01,1.01.15,1.01-.25Zm-3-6.83v-16c0-.29-4.13-.13-4.72-.13v16.44c1.43-.01,2.85-.03,4.28-.04.51,0,.44.09.44-.26Z"/><circle class="cls-3" cx="255.49" cy="327.82" r="7.29" transform="translate(-84.51 566.87) rotate(-87.18)"/><path class="cls-2" d="m255.49,320.2c-4.24-.12-7.5,3.56-7.62,7.62-.12,4.24,3.56,7.5,7.62,7.62,4.24.12,7.5-3.56,7.62-7.62-.12-4.24-3.38-7.49-7.62-7.62Zm0,14.57c-3.87.11-6.85-3.25-6.96-6.96-.11-3.87,3.25-6.85,6.96-6.96,3.87-.11,6.85,3.25,6.96,6.96-.11,3.87-3.08,6.84-6.96,6.96Z"/><path class="cls-3" d="m285.98,321.99s0-.03,0,0h0Zm1.6-2.1c-.15-1.19-.27-1.47-1.83-1.55-1.66-.09-3.72-.34-5.2.57-1.53.94-2.66,2.49-4.08,3.58-.84.67-1.87,1.1-2.65,1.85-.61.59-1.03,1.34-1.59,1.97-1.14,1.31-4.02,2.08-5.65,2.58-.63.42-.85.18-1.6.29-.74.11-1.32.51-1.97.84-.64.33-1.75,1.2-2.3.76-.33-.51-.13-1.38-.25-1.96-.21-1.04-1.01-1.73-1.29-2.71-.15-.7.24-1.51-.86-1.89-.73-.23-1.41-1.46-3.38-1.18-.45.09-1.67.49-2.08.71-.36.21-1.16.71-1.4,1.05-.15.68-.22,1.79-.38,2.09-.32.4-.7.54-.68,1.06.3,1.19-.21,1.19.83,2.03-1.83-1.12-4.39-1.58-6.43-2.25-1.02-.33-2.2-.59-3.09-1.22-.85-.51-1.32-1.57-2.06-2.23-1.76-1.56-4.03-2.4-5.85-3.9-1.62-1.34-2.74-2.13-4.93-2.09-.9,0-3.65-.4-3.96.92-.06.94.15,1.38,1.42,1.45-.22.19-.16.38-.33.58-.08.6,1.28,1.43,1.77,1.13.91-.55,2.26-.32,3.3.1,2.25,1.22,3.27,3.62,5.17,5.17,1.68,1.38,3.82,1.82,5.55,3.11,1.1.81,2.21,1.43,3.49,1.92.69.26,1.91.39,2.39.99.37.77.29,1.67.78,2.46.59.95.66,1.64.96,2.72.37,1.33.29,2.66.62,3.98.21.87.81,1.52.74,2.45,0,.86-.8,1.67-1.09,2.5-.27,1.12-.54,2.24-.78,3.38-.25,1.38-.37,2.62-.38,4.04,0,.78-.33,2.17.05,2.92.59,1.39,1.88.61,2.64,1.02,1.07,2.03,3.39,3.75,4.01,5.97.28,1.02-.57,2.13-.9,3.05-.38,1.05-.57,2.11-.59,3.22,0,2.49.83,4.99.03,7.45-.23.7-.71,1.22-.77,1.97,0,.85.46,1.58.32,2.44-.3,1.79-.72,4.41.65,5.85.65.44,1.39,1.49,2.2,1.55.3,0,.54-.14.68-.39h0c.93,0,2.05-1.66,2.16-2.44.25-1.76-.42-3.3-.77-4.97-.64-3.01,1.54-6.09,2.85-8.57,1.02-1.75,1.18-3.65,1.85-5.5.54-1.49.69-2.41.65-4.04-.05-2.06-.08-4.16-.62-6.16-.27-1-1.11-2.24-.86-3.3.07-1.3-.72-2.75-1.15-3.93-.71-1.96-1.26-5.13-.6-7.17,1.19-3,2.21-5.98,3.72-8.86.63-1.21,2.68-1.32,3.85-1.8,1.45-.59,2.69-1.37,3.93-2.32,1.27-.96,2.82-1.44,4.06-2.39.98-.76,1.65-1.81,2.37-2.81.89-1.25,1.89-3.14,3.42-3.54.8,0,1.49-.52,2.16-.56.66.13,2.28,1.16,2.15,0,.59-.21.7-.78.23-1.21.63-.02,1.22-.15,1.37-.79Z"/><path class="cls-2" d="m285.05,319.37c.36,0,.74.04,1.03.04,0,0,0,0,0,0,0,0,0,0,0,0,.14,0,.31.01.47.01.18,0,.35-.02.48-.08.08-.04.11-.08.11-.11,0-.09-.23-.23-.33-.26-.68-.21-1.52-.18-2.24-.2-.39,0-.79-.02-1.19-.02s-.79,0-1.17.04c-1.55.11-2.72,1.6-3.81,2.59-.55.49-1.08,1-1.66,1.46-.69.56-1.46.97-2.19,1.46-1.23.84-1.75,2.61-3.17,3.21-1.08.45-2.21.79-3.31,1.2-.43.16-.88.32-1.28.56-.26.16-.47.38-.77.39-.04,0-.08,0-.12-.01-.16-.03-.32-.05-.49-.05-.26,0-.53.04-.78.11-.55.15-.93.46-1.43.71-.69.35-1.41.62-2.05,1.05-.04.03-.1.04-.15.04-.27,0-.6-.3-.72-.5-.18-.3-.36-.6-.37-.93,0-.82-.06-1.46-.44-2.2-.15-.3-.53-1.04-.55-1.06-.08-.1-.15-.21-.22-.33.19-.3.28-.59.23-.86-.03-.14-.07-.26-.12-.37,0-.16-.04-.32-.15-.47-.42-.36-.88-.37-1.23-.31-.23-.31-.47-.59-.74-.81-.17,0-.34-.03-.48-.09-.23-.1-.49-.14-.75-.14-.46,0-.93.14-1.28.39-.14.1-.16.11-.35.11-.24,0-.46.07-.67.17-.35.3-.72.64-1.04,1.01-.11.16-.21.33-.3.51-.01,0-.02,0-.03,0-.24.53-.31,1.18-.29,1.77-.27.18-.47.39-.47.61,0,.07.01.14.03.2-.26.65.04,1.01.68,1.14-.01.02-.02.04-.04.05-.01.13-.03.27-.03.4,0,.09,0,.17.02.26.02.14.25.44.25.61,0,.07-.05.12-.14.12-.04,0-.09,0-.16-.02-.39-.11-.63-.42-.98-.54-.34-.12-.69-.12-1.03-.29-.81-.4-1.41-.75-2.31-.89-.47-.07-.75-.1-1.18-.29-.74-.34-1.51-.58-2.29-.82-.83-.26-1.67-.56-2.41-1.02-.6-.37-.85-.84-1.26-1.36-1.07-1.35-2.55-2.12-4.03-2.94-1.2-.66-2.27-1.51-3.3-2.4-.53-.46-1.08-.93-1.72-1.2-.52-.22-1.12-.25-1.71-.25-.17,0-.33,0-.49,0h-.08c-.1,0-.21,0-.31,0-.54,0-1.08,0-1.62.05-.38.03-.77.04-1.14.12-.1.02-.44.19-.43.29,0,.03.02.06.1.11.21.1.45.13.7.13.45,0,.94-.11,1.41-.11.26,0,.51.04.74.15.01,0,.02.02.02.03,0,.02-.02.02-.03.03-.58.03-1.16.06-1.73.1-.36.02-.84-.02-1.15.12-.08.03-.1.06-.09.08-.01.05.19.16.41.21.22.07.46.11.5.11.11,0,.23,0,.34,0s.22,0,.33,0c0,0,0,0,.01,0,.18.01.26.27.45.32.01,0,.02.02.02.03,0,.01,0,.02-.02.03-.16.06-.92.47-.91.68,0,.02,0,.04.03.07.07.08.16.11.26.11.37,0,.9-.39,1.23-.45.02,0,.03,0,.04.02,0,.01,0,.03-.02.04-.15.07-.99.62-.98.87,0,.03.01.05.04.08.06.05.13.07.19.07.33,0,.71-.55,1.1-.6.15-.02.31-.04.45-.09h.04c.09.17.23.26.39.34.33.16.71.24,1.08.27.04,0,.09,0,.13,0,.13,0,.27-.02.4-.02.15,0,.3.02.44.1.44.24.81.54,1.16.9.53.54,1.16.96,1.7,1.51.57.58.91,1.34,1.45,1.93,1.18,1.3,2.64,2.12,4.28,2.69,1.44.5,2.46,1.66,3.77,2.36.77.41,1.59.72,2.41,1.02.53.2,1.8.41,2.04,1.03.12.31.08.66.15.96.08.33.2.66.34.97.28.63.86,1.18,1.02,1.88.03.74.22,1.39.45,2.09.29.9.22,1.74.3,2.66.04.45.15.88.32,1.29.15.37.45.75.51,1.16.06.41.01.83.05,1.24-.15.43-.44.74-.67,1.1-.2.32-.36.67-.45,1.04-.05.2-.07.41-.07.63h0v.02c-.13.21-.22.44-.28.68-.19.67-.29,1.36-.42,2.04-.11.58-.32,1.11-.35,1.7-.05,1,.53,3.92.52,4.36,0,.06.82.99,1.83,1.18,0,0,.01,0,.02,0,0,0,0,0,0,0,0,0,.02,0,.02.02.67,1.41,1.6,2.55,2.56,3.78.67.86,1.78,2.1,1.78,3.31,0,.25-.05.5-.16.75-.61,1.36-1.18,2.57-1.34,4.07-.04.32-.05.65-.05.97,0,1.24.22,2.47.33,3.71.03.36.05.76.05,1.16,0,1.36-.23,2.85-.95,3.9-.13.19-.18.41-.18.64,0,.44.17.92.28,1.3.06.23.08.44.08.65,0,.58-.18,1.11-.29,1.71-.04.23-.06.45-.06.67,0,.68.15,1.35.19,2.04.03.5.06,1.23.53,1.51.15.1.18-.04.26.2.05.13.14.24.28.28.2.06.2-.01.35.16.08.08.18.12.3.12,0,0,0,0,.04.02.11.32.31.65.66.69.03,0,.05,0,.07,0,.35,0,.35-.37.35-.68,0-.02.01-.03.03-.03.02,0,.03,0,.03.02.07.23.17.31.28.31.33,0,.87-.71,1.07-.9.54-.52.64-.92.64-1.58,0-.08,0-.17,0-.26-.02-.77-.04-1.55-.24-2.29-.2-.74-.62-1.61-.62-2.42,0-.06,0-.11,0-.17.05-.64.19-1.26.22-1.91.03-.69.24-1.33.54-1.94.6-1.5,1.39-2.88,2.2-4.28.76-1.31,1.17-2.71,1.47-4.19.13-.64.32-1.24.59-1.84.12-.25.31-.44.37-.69.05-.21.07-.43.07-.65,0-.14,0-.28-.01-.42-.14-2.73.03-5.67-.88-8.27-.26-.73-.6-1.42-.71-2.21.03-.13.05-.31.05-.49,0-.33-.08-.69-.3-.83-.06-.04-.06-.13-.06-.24,0-.13.01-.29.01-.44,0-.24-.04-.41-.17-.41-.02,0-.04,0-.07.01-.01,0-.02,0-.03,0s-.01-.02,0-.03c.05-.14.1-.34.1-.53,0-.17-.04-.34-.15-.44-.09-.08-.11-.06-.14-.07-.05,0-.07-.05-.09-.17-.03-.15-.17-.33-.18-.45-.01-.13-.04-.25-.13-.33-.09-.08-.12-.17-.12-.27,0-.08.01-.17.01-.27,0,0,0,0,0,0-.01-1.64-.61-3.22-.8-4.84-.01-.1-.02-.19-.02-.29,0-.59.2-1.14.42-1.69.34-.86.68-1.71.9-2.6.43-1.73,1.52-3.26,2.23-4.88.31-.69.51-1.48,1.04-2.06.48-.52,1.59-.6,2.23-.84,1.68-.61,3.27-1.24,4.68-2.36,1.09-.87,2.28-1.73,3.6-2.24,1.46-.56,2.4-2.05,3.28-3.29.62-.87,1.27-1.71,1.93-2.54.32-.39.64-.82,1.11-1.06.24-.12.5-.14.76-.14.12,0,.25,0,.37,0s.23,0,.35-.02c.25-.03.5-.09.73-.18.23-.08.46-.37.69-.38.02,0,.04,0,.06,0,.34.08.49.02.76.25.18.16.4.4.64.39.01,0,.08-.01.14-.04.07-.02.11-.06.11-.07h0c-.16-.41-.61-.72-.99-.91-.01,0-.02-.02-.02-.04,0-.01.02-.02.04-.02.34.06.86.46,1.22.46.08,0,.14-.02.21-.06.06-.04.08-.08.08-.12.01-.23-.73-.62-.9-.68-.01,0-.02-.02-.02-.03,0-.01,0-.02.02-.03.19-.06.26-.31.45-.32h0s0,0,0,0c.12,0,.24,0,.36,0,.16,0,.32,0,.48-.02.4-.04.67-.2.66-.29,0-.06-.13-.16-.51-.18-.79-.06-1.59-.09-2.39-.14-.01,0-.03-.01-.03-.03,0-.01,0-.03.02-.03.24-.11.54-.14.86-.14Z"/><path class="cls-1" d="m253.62,280.14c-.17.14-.36.3-.56.48-2.83,2.5-6.43.1-7.83-2.47-.86-1.57-1.23-3.33-2.22-5.01-.95-1.6-2.21-3.1-3.61-3.95,1.88.03,2.15.56,3.37,1.91,1.75,1.91,2.6,3.73,3.96,5.77l.29.43c-1.15-2.53-2.66-5.11-4.62-7.2-.24-.26-.49-.5-.73-.74.74.11,1.51.33,2,.87.2.22.39.45.59.68,1.74,2.12,2.5,4.12,3.8,6.37l.28.48c-1.02-2.74-2.41-5.54-4.31-7.84,1.25.44,1.57.65,2.24,1.68,1.25,1.95,1.87,3.77,2.91,5.83l.25.49c-.71-2.28-1.66-4.62-2.95-6.72.05.03.09.07.14.11,1.1.87,1.58,1.19,2.09,2.41.48,1.17.89,2.35,1.44,3.61l.22.5c-.38-1.53-.86-3.08-1.48-4.58.96.66.97.02,1.32,1.17.27.87.52,1.76.85,2.69l.18.51c-.21-1.28-.5-2.59-.88-3.88.51.02,1.13-.07,1.95-.3.05-.01.11-.03.16-.04-.03.13-.05.25-.07.38-.16.94-.17,1.71-.02,2.55.02.09.04.18.06.27v-.08c-.07-.86.04-1.84.4-2.92.36-1.08.95-2.27,1.15-3.61.2-1.35,0-2.85-.36-4.33-.36-1.48-.87-2.93-1.73-4.4-.08-.13-.16-.27-.24-.4.35-.1.71-.19,1.07-.26.52,1.52.83,3.01,1.35,4.65l.17.52c-.24-1.74-.6-3.52-1.16-5.24.21-.04.42-.07.63-.1.19.88.37,1.78.62,2.72l.14.52c-.09-1.09-.23-2.19-.43-3.29.29-.04.58-.06.87-.09.24,1.64.25,3.19.46,4.95l.06.54c.11-1.8.09-3.68-.15-5.5.26-.01.52-.02.78-.02.1,1.32.18,2.59.22,3.48.06-.89.18-2.15.31-3.47.26,0,.52.02.78.04-.28,1.82-.35,3.69-.29,5.5l.08-.53c.25-1.75.3-3.3.58-4.93.29.03.58.06.87.11-.23,1.09-.4,2.2-.52,3.28l.15-.52c.27-.94.48-1.83.69-2.71.21.04.42.08.63.12-.6,1.7-1.01,3.48-1.29,5.21l.18-.51c.56-1.63.91-3.1,1.47-4.61.36.08.72.18,1.07.29-.09.13-.17.26-.25.39-.9,1.44-1.44,2.88-1.84,4.35-.39,1.47-.63,2.97-.47,4.32.16,1.35.73,2.55,1.06,3.64.33,1.09.42,2.07.33,2.93v.08c.01-.09.04-.18.05-.27.18-.84.19-1.61.05-2.55-.02-.12-.04-.25-.06-.38.05.01.11.03.16.05.81.25,1.43.36,1.94.35-.41,1.27-.73,2.58-.98,3.85l.19-.51c.35-.93.63-1.8.92-2.67.38-1.14.37-.5,1.35-1.14-.66,1.48-1.18,3.02-1.59,4.54l.23-.5c.58-1.25,1.02-2.41,1.53-3.57.53-1.2,1.03-1.51,2.15-2.35.05-.03.09-.07.14-.1-1.34,2.07-2.35,4.38-3.12,6.64l.26-.48c1.09-2.03,1.75-3.84,3.05-5.76.69-1.02,1.02-1.22,2.28-1.62-1.96,2.25-3.42,5.02-4.51,7.73l.29-.47c1.36-2.22,2.17-4.2,3.96-6.27.2-.23.4-.45.6-.67.51-.53,1.28-.73,2.02-.82-.25.23-.5.47-.75.72-2.01,2.04-3.58,4.58-4.8,7.08l.3-.43c1.41-2.01,2.31-3.8,4.1-5.67,1.26-1.31,1.54-1.84,3.42-1.82-1.42.81-2.72,2.28-3.7,3.86-1.04,1.66-1.45,3.4-2.35,4.95-1.46,2.54-5.13,4.85-7.89,2.27-.19-.18-.37-.34-.54-.49-.08.17-.15.33-.21.49-.19.51-.22.94-.27,1.43-.05.5-.11,1.07-.25,1.55-.14.48-.36.86-.79,1.13-.15.1-.29.17-.43.23-.06.5-.27.96-.6,1.33h0s0,0,0,0h0s0,0,0,0c-.32-.38-.52-.85-.57-1.35-.13-.06-.27-.14-.42-.24-.42-.28-.64-.67-.76-1.15-.13-.48-.17-1.05-.21-1.55-.04-.5-.06-.92-.24-1.44-.05-.16-.12-.32-.19-.49h0Z"/></svg>